<svg fill="#000000" xmlns="http://www.w3.org/2000/svg"  viewBox="0 0 128 128" width="64px" height="64px"><path d="M32,122h64c7.2,0,13-5.8,13-13V29c0-6.1-2.4-11.9-6.7-16.3S92.1,6,86,6L32,6c-7.2,0-13,5.8-13,13v90 C19,116.2,24.8,122,32,122z M86.1,92h-44c-1.7,0-3-1.3-3-3s1.3-3,3-3h44c1.7,0,3,1.3,3,3S87.8,92,86.1,92z M98,17 c2.5,2.5,4.1,5.6,4.7,9H96c-3.9,0-7-3.1-7-7l0-6.7C92.4,12.9,95.5,14.5,98,17z M41.9,56h44c1.7,0,3,1.3,3,3s-1.3,3-3,3h-44 c-1.7,0-3-1.3-3-3S40.2,56,41.9,56z M41.9,71h44c1.7,0,3,1.3,3,3s-1.3,3-3,3h-44c-1.7,0-3-1.3-3-3S40.2,71,41.9,71z"/></svg>